<svg width="20" height="20" viewBox="0 0 20 20" fill="none" xmlns="http://www.w3.org/2000/svg">
<path d="M18.1667 11.6675C17.8215 13.353 16.9636 14.8906 15.7104 16.0695C14.4572 17.2484 12.8701 18.0109 11.1667 18.2525V16.565C12.4248 16.3406 13.5921 15.7598 14.5299 14.8914C15.4676 14.0231 16.1364 12.9039 16.4567 11.6667L18.1667 11.6675ZM3.54334 11.6675C3.86018 12.8904 4.51756 13.9983 5.43908 14.8625C6.3606 15.7266 7.50843 16.3115 8.74917 16.5492V18.2408C7.06243 17.9838 5.49507 17.2158 4.25844 16.0402C3.02181 14.8647 2.1754 13.3382 1.83334 11.6667H3.54334V11.6675ZM15 9.16666V10.8333H14.1667C13.3115 10.8333 12.489 11.162 11.8693 11.7514C11.2497 12.3408 10.8803 13.1459 10.8375 14L10.8333 14.1667V15H9.16667V14.1667C9.16667 13.3115 8.83798 12.489 8.24857 11.8693C7.65916 11.2497 6.85414 10.8803 6 10.8375L5.83334 10.8333H5V9.16666H15ZM10 1.66666C14.3208 1.66666 17.8742 4.95582 18.2917 9.16666H16.615C16.4116 7.55574 15.6274 6.07438 14.4095 5.00055C13.1916 3.92672 11.6237 3.33422 10 3.33422C8.3763 3.33422 6.80839 3.92672 5.59048 5.00055C4.37257 6.07438 3.58836 7.55574 3.385 9.16666H1.7075C2.12584 4.95582 5.67917 1.66666 10 1.66666Z" fill="black"/>
</svg>
